#!OML:ASF F:\VICON\USERDATA\INSTALL\rory3\rory3.ASF
:FULLY-SPECIFIED
:DEGREES
73
root 0.40721585858269643 17.67212041736794 12.437752933562308 9.30276574292051 0.11777487649967866 -1.6363902751947619
lfemur -20.100499396692733 7.505430065143818 -17.5368566995181
ltibia 23.29724558257758
lfoot -10.148822457845819 4.365457333478246
ltoes -8.35145751795271
rfemur -19.92723718497852 -3.543360449474219 20.325098929610355
rtibia 25.55781945967118
rfoot -14.441092962929998 0.3196770715203452
rtoes 11.231760264824171
lowerback -0.3191424278442959 0.5862327587064227 -0.7198679795159204
upperback 1.2228644367354207 0.6784277139778208 1.379454622058976
thorax 1.555070148503329 0.35904578006797405 1.6968708908178043
lowerneck -11.776455309046602 -1.1522433097347966 -2.0881194179812366
upperneck 28.11528945379179 -1.9326783500991818 2.8550519421335823
head 11.175935753185264 -0.6631422200986218 1.062386999554901
lclavicle -2.0296938339174515e-15 -1.348011796974668e-16
lhumerus -33.882566554199855 5.596052365419821 82.96031393984731
lradius 16.65245609965913
lwrist 5.4175387293200234
lhand -24.5465229449471 -7.574616244292975
lfingers 7.125019999999999
lthumb 1.949421238068977 22.396678217924567
rclavicle -2.029693833917452e-15 -1.348011796974668e-16
rhumerus -25.749585842693726 -22.165136342286573 -77.30399051518789
rradius 22.527735150885793
rwrist 41.98129595827688
rhand -20.363784616199087 -27.88014217707126
rfingers 7.125019999999999
rthumb 5.989561820951107 -57.76723722099956
74
root 0.4211864925929944 17.783229967596796 12.959770477876617 10.211332519460077 0.07323885650022255 -1.6482500613256288
lfemur -18.788866104856627 7.576697365022943 -17.568174912937152
ltibia 22.217200871005467
lfoot -9.611847051897469 4.486030447936054
ltoes -7.759144647961004
rfemur -18.667996837571756 -3.1750496928842766 20.432309912664692
rtibia 24.460918630556513
rfoot -13.802510440335377 0.7275755226583862
rtoes 12.44359077947291
lowerback -0.5207328263817951 0.6149282678602556 -0.6513290337965976
upperback 1.24336377395079 0.7212419459377091 1.3838331795730223
thorax 1.9072091720862103 0.38002956830593215 1.6843672478037195
lowerneck -11.720421884027132 -1.1172328971166012 -2.1096250987124248
upperneck 28.177130251388135 -1.8602518066966711 2.8520472917050146
head 11.192966541403297 -0.6413608672417033 1.0722204177610029
lclavicle -1.7533652093155557e-15 2.2803113819924095e-16
lhumerus -33.36088430517691 5.60869542676712 83.64523378436805
lradius 17.009505802037552
lwrist 5.854252635557426
lhand -24.538013600551103 -7.440963433179666
lfingers 7.125019999999999
lthumb 1.957643019283351 22.53009266742809
rclavicle -1.7533652093155559e-15 2.2803113819924095e-16
rhumerus -25.696506676442066 -21.71732794707674 -77.20137800076365
rradius 22.27390940754264
rwrist 41.871818718259775
rhand -20.127253728246995 -27.78599840885862
rfingers 7.125019999999999
rthumb 6.2177933380339026 -57.667796093774136
75
root 0.4282865309293022 17.82002870288539 13.09670070887388 10.517712086473065 -0.024217089452239327 -1.7129561397107098
lfemur -18.01860339396567 7.5637088458452695 -17.524161510463795
ltibia 20.601126868625677
lfoot -9.382721453860219 4.265276610681566
ltoes -7.372416225847063
rfemur -17.831989376194663 -3.1517278276808023 20.46270251235063
rtibia 22.56813390081156
rfoot -13.53865771520574 0.8505446348769747
rtoes 12.67771567860795
lowerback -0.9619329055192504 0.6204125599317142 -0.5949010595262854
upperback 1.2353818827894456 0.7273358209531515 1.3621880389064063
thorax 2.1818579497874997 0.3795321221300011 1.6380954329402306
lowerneck -11.67218741458391 -1.0808506105993803 -2.1225155150050674
upperneck 27.983077149785718 -1.8106884804509187 2.8259561613791075
head 11.112869335750315 -0.6259909668246479 1.074323793092286
lclavicle -1.8287354705457555e-15 1.3604154733427404e-16
lhumerus -33.124741799516485 4.038662548527695 84.2255850647777
lradius 17.61381015963049
lwrist 6.02070389667189
lhand -24.44823826242175 -7.227922748307789
lfingers 7.125019999999999
lthumb 2.0443563114721446 22.744188661432034
rclavicle -1.828735470545756e-15 1.3604154733427423e-16
rhumerus -25.760283062267845 -21.003088185334924 -77.4678121314113
rradius 22.0435631887085
rwrist 41.66893356830203
rhand -19.87218496561011 -27.635850393357224
rfingers 7.125019999999999
rthumb 6.463921648561925 -57.50804410957381
76
root 0.43813304945718157 17.941840385449314 13.8258464487144 10.690323892907145 -0.12482935500436843 -1.7299914930016547
lfemur -16.660076162807602 7.5976745526388765 -17.512833739909436
ltibia 19.677983340023815
lfoot -8.601374355260337 4.462802515477115
ltoes -6.67335647096872
rfemur -16.532079593628502 -3.0782972278413756 20.517117726931886
rtibia 21.6510047036
rfoot -12.767412764293535 1.0466965256356353
rtoes 13.728945009245521
lowerback -1.316895751734089 0.5966158741506856 -0.573386340180075
upperback 1.266115433896636 0.6980376371565971 1.3444478397705826
thorax 2.6021048987611977 0.36023326263534394 1.6311662740548711
lowerneck -11.527340469724281 -1.0208552088266394 -2.135381835661161
upperneck 28.216313838961995 -1.723995378631486 2.859036845553903
head 11.185376230943884 -0.5972973596443135 1.0940284813070826
lclavicle -1.6404153990324408e-15 3.8639189223253445e-16
lhumerus -32.672389683976846 3.1506630097699087 85.04677028828127
lradius 18.19500196533016
lwrist 6.455312326118659
lhand -24.326928077209892 -6.873233776346019
lfingers 7.125019999999999
lthumb 2.1615147312999876 23.099883353271807
rclavicle -1.6404153990324408e-15 3.863918922325345e-16
rhumerus -25.683856511329555 -20.212065891940128 -77.74705919096553
rradius 22.146165347134794
rwrist 41.50322997759435
rhand -19.54951212140102 -27.500654963800507
rfingers 7.125019999999999
rthumb 6.775273498599223 -57.36445301469552
77
root 0.44490814045414423 17.96820421338491 13.51962648348404 10.76787558140254 -0.2138113493471958 -1.7496900763994976
lfemur -16.001927834545082 7.627892911119158 -17.541663827164392
ltibia 18.238333477707933
lfoot -8.614920337425287 4.223405520167466
ltoes -6.705157075390014
rfemur -15.961898858090409 -2.9982048054197157 20.479667001990677
rtibia 20.199930396193096
rfoot -12.661982435346417 1.0634764564375452
rtoes 13.972353872733352
lowerback -1.8322648836057382 0.5568771167208862 -0.5878709392290932
upperback 1.258974122696993 0.6528049283769299 1.3300783509465328
thorax 2.791116564578169 0.33427422053870554 1.6099394113858243
lowerneck -11.530394543610567 -0.9736186958014489 -2.151395980733829
upperneck 28.01740667888874 -1.6519330574015731 2.8068057896091956
head 11.093386785336232 -0.5710744158546837 1.095080799311115
lclavicle -1.7888998728891955e-15 1.870721074473044e-16
lhumerus -32.063695149501484 1.861310924417348 85.61371733468033
lradius 18.641342583111882
lwrist 6.711128599430813
lhand -24.106296695895683 -6.5137700089315675
lfingers 7.125019999999999
lthumb 2.3745881558776105 23.45498145907957
rclavicle -1.788899872889196e-15 1.870721074473044e-16
rhumerus -25.546131626208165 -19.212334646675888 -78.22282317013271
rradius 22.219542107455446
rwrist 40.823520226922454
rhand -19.350889506005704 -27.42466951389413
rfingers 7.125019999999999
rthumb 6.966928219285145 -57.280521292722014
78
root 0.45049664033102127 17.99880632910592 13.660983314053148 10.535299709536428 -0.3154268961225286 -1.7736916567073024
lfemur -15.25247045575092 7.670215344643834 -17.531757808493392
ltibia 17.21706269929421
lfoot -8.495602029967062 4.151501586170411
ltoes -6.671566670316068
rfemur -15.261190782222885 -3.1338876763980985 20.43766964229138
rtibia 19.17682851259353
rfoot -12.589754835185428 0.9374209650733212
rtoes 13.935995360599165
lowerback -2.3013563924610594 0.5118629890792369 -0.5852621483652494
upperback 1.224340981592848 0.5869147833480493 1.3028669341200179
thorax 3.055425182583445 0.29744802098746437 1.5977003928486333
lowerneck -11.50626197265043 -0.9276405210912559 -2.17488928398
upperneck 28.124992695634788 -1.586089399221679 2.8108120425628593
head 11.1338061169611 -0.551165145124282 1.108021451710154
lclavicle -1.8586457013084437e-15 1.0149404715902262e-16
lhumerus -31.620582277823438 0.24391573543251654 86.08520496523967
lradius 19.091053514850433
lwrist 6.665899371498082
lhand -23.92222140135689 -6.089024294451027
lfingers 7.125019999999999
lthumb 2.552358794865795 23.878572002871252
rclavicle -1.8586457013084433e-15 1.0149404715902282e-16
rhumerus -25.49751806470208 -18.607943144296787 -78.6067015245793
rradius 22.041829600675527
rwrist 40.75702859013463
rhand -19.11757369349833 -27.327009682066233
rfingers 7.125019999999999
rthumb 7.192056358786656 -57.175275830619164
79
root 0.45296441619171557 18.027675637846006 13.948589808835466 10.425641051034582 -0.352624186849021 -1.7466092206207968
lfemur -14.283401742594688 7.676276517586931 -17.558104406658313
ltibia 16.661174128113906
lfoot -8.382484620187377 4.2930317381685095
ltoes -6.486588693331327
rfemur -14.434439182254359 -3.0814069666210955 20.42341698458862
rtibia 18.777506746247685
rfoot -12.462375643582678 1.0561425401027327
rtoes 14.551651585015534
lowerback -2.6317827888448195 0.4476031315289892 -0.5976085351603876
upperback 1.2010627838048902 0.5109503226482623 1.2934446350852438
thorax 3.3092323258543836 0.25453104009525823 1.6091171872720957
lowerneck -11.478817916586179 -0.8778303824645017 -2.1983068686034177
upperneck 28.2629436791607 -1.5064607423398575 2.794883939089055
head 11.188258574885264 -0.5250394245490766 1.118168625640143
lclavicle -1.7592528215954726e-15 2.2533562279487446e-16
lhumerus -31.157085684101272 -0.34548983367253383 86.61827554468792
lradius 19.508200901490458
lwrist 7.046316305613422
lhand -23.725916419479056 -5.671674695642751
lfingers 7.125019999999999
lthumb 2.7419340670901815 24.29237817445406
rclavicle -1.7592528215954726e-15 2.2533562279487446e-16
rhumerus -25.41776794536418 -17.958940111142773 -78.88891001563113
rradius 22.115531459193935
rwrist 40.46711410287862
rhand -18.88332810160796 -27.277429747384414
rfingers 7.125019999999999
rthumb 7.418073777650368 -57.119842387254174
